<?xml version="1.0" encoding="utf-8"?>
<!-- Generator: Adobe Illustrator 16.0.0, SVG Export Plug-In . SVG Version: 6.00 Build 0)  -->
<!DOCTYPE svg PUBLIC "-//W3C//DTD SVG 1.1//EN" "http://www.w3.org/Graphics/SVG/1.1/DTD/svg11.dtd">
<svg version="1.1" id="Layer_1" xmlns="http://www.w3.org/2000/svg" xmlns:xlink="http://www.w3.org/1999/xlink" x="0px" y="0px"
	 width="265.763px" height="66.731px" viewBox="0 0 265.763 66.731" enable-background="new 0 0 265.763 66.731"
	 xml:space="preserve">
<g>
	<g>
		<g>
			<g>
				<path fill="#666666" d="M125.271,29.256h-1.321l-5.052-17.747c-0.419-1.458-0.733-2.653-0.943-3.587
					c-0.168,0.913-0.407,1.962-0.715,3.147c-0.31,1.185-2.001,7.248-5.075,18.187h-1.354l-6.325-23.001h1.684l4.029,14.821
					c0.156,0.597,0.303,1.151,0.439,1.66c0.136,0.509,0.26,0.986,0.37,1.432c0.109,0.446,0.209,0.876,0.298,1.291
					c0.09,0.414,0.171,0.831,0.244,1.251c0.252-1.427,0.788-3.593,1.605-6.499l3.933-13.955h1.778l4.61,16.017
					c0.535,1.846,0.918,3.335,1.148,4.467c0.136-0.754,0.312-1.558,0.527-2.406c0.215-0.849,1.833-6.876,4.854-18.078h1.62
					L125.271,29.256z"/>
				<path fill="#666666" d="M147.504,20.682c0,2.791-0.677,4.97-2.029,6.538c-1.353,1.568-3.22,2.352-5.602,2.352
					c-1.499,0-2.821-0.362-3.964-1.085c-1.145-0.724-2.021-1.762-2.628-3.115c-0.608-1.353-0.912-2.916-0.912-4.689
					c0-2.79,0.676-4.963,2.029-6.521c1.354-1.558,3.21-2.337,5.57-2.337c2.349,0,4.193,0.79,5.531,2.368
					C146.837,15.771,147.504,17.935,147.504,20.682z M134.006,20.682c0,2.351,0.517,4.183,1.55,5.499
					c1.032,1.317,2.493,1.975,4.381,1.975c1.887,0,3.348-0.657,4.381-1.975c1.033-1.315,1.549-3.148,1.549-5.499
					c0-2.359-0.52-4.19-1.563-5.491c-1.045-1.3-2.51-1.951-4.397-1.951c-1.889,0-3.344,0.648-4.366,1.943
					C134.516,16.479,134.006,18.312,134.006,20.682z"/>
				<path fill="#666666" d="M171.996,29.256V18.04c0-1.668-0.326-2.885-0.976-3.651c-0.651-0.766-1.647-1.148-2.99-1.148
					c-1.752,0-3.048,0.482-3.886,1.448c-0.84,0.965-1.258,2.48-1.258,4.546v10.022h-1.59V17.567c0-2.884-1.322-4.327-3.965-4.327
					c-1.794,0-3.1,0.522-3.918,1.566c-0.818,1.044-1.227,2.713-1.227,5.011v9.439h-1.557V12.155h1.289l0.331,2.344h0.094
					c0.474-0.85,1.143-1.508,2.014-1.975c0.87-0.466,1.831-0.701,2.879-0.701c2.696,0,4.427,1.013,5.192,3.038h0.062
					c0.557-0.976,1.303-1.726,2.242-2.25s2.006-0.787,3.201-0.787c1.867,0,3.27,0.5,4.201,1.495c0.933,0.997,1.401,2.58,1.401,4.751
					v11.187H171.996z"/>
				<path fill="#666666" d="M184.693,29.571c-2.487,0-4.425-0.766-5.813-2.297c-1.391-1.531-2.085-3.676-2.085-6.435
					c0-2.727,0.672-4.911,2.014-6.553c1.342-1.641,3.15-2.462,5.428-2.462c2.014,0,3.603,0.704,4.767,2.109
					c1.164,1.406,1.747,3.315,1.747,5.727v1.259h-12.318c0.021,2.349,0.568,4.143,1.643,5.38c1.076,1.238,2.614,1.856,4.619,1.856
					c0.975,0,1.832-0.067,2.572-0.204c0.738-0.136,1.676-0.43,2.807-0.881v1.416c-0.965,0.42-1.855,0.705-2.674,0.857
					C186.58,29.495,185.677,29.571,184.693,29.571z M184.236,13.209c-1.646,0-2.969,0.542-3.965,1.628
					c-0.996,1.085-1.578,2.651-1.746,4.696h10.572c0-1.982-0.43-3.532-1.289-4.649C186.947,13.768,185.755,13.209,184.236,13.209z"
					/>
				<path fill="#666666" d="M206.106,29.256V18.165c0-1.72-0.361-2.97-1.087-3.752c-0.723-0.782-1.845-1.172-3.365-1.172
					c-2.045,0-3.543,0.517-4.492,1.55c-0.949,1.033-1.424,2.708-1.424,5.026v9.439h-1.557V12.155h1.32l0.3,2.344h0.095
					c1.11-1.783,3.088-2.675,5.93-2.675c3.882,0,5.822,2.083,5.822,6.246v11.187H206.106z"/>
				<path fill="#666666" d="M112.938,61.478h-1.62v-21.49h-7.475v-1.512h16.567v1.512h-7.473V61.478z"/>
				<path fill="#666666" d="M129.049,61.792c-2.487,0-4.425-0.765-5.813-2.297c-1.391-1.531-2.085-3.676-2.085-6.435
					c0-2.728,0.671-4.911,2.014-6.553c1.342-1.642,3.151-2.462,5.428-2.462c2.013,0,3.602,0.703,4.767,2.108
					c1.164,1.405,1.747,3.314,1.747,5.727v1.259h-12.319c0.021,2.35,0.568,4.143,1.644,5.381c1.075,1.237,2.614,1.855,4.618,1.855
					c0.975,0,1.832-0.067,2.572-0.203c0.739-0.137,1.676-0.432,2.808-0.882v1.416c-0.964,0.42-1.856,0.706-2.673,0.856
					C130.937,61.716,130.035,61.792,129.049,61.792z M128.593,45.431c-1.646,0-2.969,0.542-3.966,1.628
					c-0.996,1.086-1.579,2.651-1.745,4.696h10.572c0-1.982-0.43-3.531-1.29-4.648S130.113,45.431,128.593,45.431z"/>
				<path fill="#666666" d="M145.367,61.792c-2.446,0-4.36-0.77-5.744-2.312c-1.385-1.542-2.076-3.691-2.076-6.449
					c0-2.832,0.719-5.038,2.156-6.617c1.436-1.578,3.402-2.367,5.899-2.367c1.479,0,2.894,0.257,4.247,0.771l-0.425,1.385
					c-1.479-0.494-2.765-0.74-3.854-0.74c-2.098,0-3.688,0.647-4.767,1.943c-1.08,1.295-1.62,3.159-1.62,5.593
					c0,2.308,0.54,4.114,1.62,5.42c1.079,1.306,2.59,1.958,4.53,1.958c1.553,0,2.996-0.277,4.327-0.833v1.448
					C148.57,61.526,147.138,61.792,145.367,61.792z"/>
				<path fill="#666666" d="M165.126,61.478V50.386c0-1.721-0.362-2.971-1.086-3.752s-1.846-1.172-3.367-1.172
					c-2.045,0-3.541,0.518-4.492,1.55c-0.949,1.032-1.422,2.708-1.422,5.026v9.439h-1.559v-24.48h1.559v7.788l-0.08,2.187h0.111
					c0.639-1.027,1.447-1.772,2.422-2.233c0.976-0.462,2.188-0.692,3.635-0.692c3.881,0,5.82,2.082,5.82,6.246v11.186H165.126z"/>
				<path fill="#666666" d="M191.638,61.478V50.261c0-1.668-0.324-2.885-0.976-3.65c-0.649-0.766-1.647-1.148-2.987-1.148
					c-1.752,0-3.048,0.482-3.888,1.447c-0.839,0.965-1.259,2.48-1.259,4.547v10.021h-1.588V49.788c0-2.885-1.322-4.326-3.965-4.326
					c-1.795,0-3.1,0.521-3.919,1.564c-0.817,1.045-1.226,2.715-1.226,5.012v9.439h-1.559V44.376h1.29l0.33,2.344h0.095
					c0.473-0.849,1.144-1.507,2.014-1.975c0.871-0.465,1.83-0.699,2.879-0.699c2.697,0,4.426,1.012,5.192,3.037h0.063
					c0.555-0.976,1.303-1.727,2.242-2.251c0.938-0.524,2.004-0.786,3.201-0.786c1.867,0,3.268,0.498,4.201,1.494
					c0.934,0.998,1.399,2.581,1.399,4.752v11.186H191.638z"/>
				<path fill="#666666" d="M207.814,61.478l-0.393-2.705h-0.127c-0.86,1.102-1.744,1.881-2.65,2.336
					c-0.908,0.455-1.98,0.684-3.217,0.684c-1.68,0-2.986-0.43-3.919-1.289c-0.935-0.859-1.4-2.051-1.4-3.572
					c0-1.668,0.695-2.963,2.086-3.885c1.388-0.924,3.399-1.412,6.033-1.464l3.257-0.095v-1.133c0-1.625-0.332-2.854-0.991-3.682
					c-0.661-0.828-1.728-1.242-3.194-1.242c-1.584,0-3.225,0.44-4.926,1.32l-0.58-1.353c1.877-0.88,3.732-1.321,5.568-1.321
					c1.878,0,3.281,0.488,4.209,1.463c0.928,0.976,1.392,2.496,1.392,4.562v11.375H207.814z M201.521,60.376
					c1.824,0,3.264-0.521,4.318-1.564c1.053-1.045,1.582-2.494,1.582-4.35v-1.685l-2.99,0.126c-2.402,0.116-4.114,0.49-5.137,1.125
					c-1.023,0.635-1.533,1.624-1.533,2.967c0,1.068,0.328,1.9,0.982,2.493C199.399,60.081,200.325,60.376,201.521,60.376z"/>
				<path fill="#666666" d="M214.737,53.974l8.732-9.598h1.888l-6.734,7.301l7.317,9.801h-1.874l-6.497-8.637l-2.801,2.549v6.088
					h-1.557v-24.48h1.557v12.273l-0.11,4.703H214.737z"/>
				<path fill="#666666" d="M234.419,61.792c-2.484,0-4.422-0.765-5.812-2.297c-1.389-1.531-2.085-3.676-2.085-6.435
					c0-2.728,0.672-4.911,2.015-6.553s3.152-2.462,5.428-2.462c2.014,0,3.604,0.703,4.768,2.108
					c1.165,1.405,1.747,3.314,1.747,5.727v1.259H228.16c0.02,2.35,0.568,4.143,1.644,5.381c1.075,1.237,2.615,1.855,4.616,1.855
					c0.977,0,1.836-0.067,2.574-0.203c0.74-0.137,1.675-0.432,2.809-0.882v1.416c-0.965,0.42-1.856,0.706-2.676,0.856
					C236.31,61.716,235.406,61.792,234.419,61.792z M233.964,45.431c-1.647,0-2.967,0.542-3.965,1.628
					c-0.995,1.086-1.578,2.651-1.746,4.696h10.573c0-1.982-0.43-3.531-1.291-4.648C236.677,45.989,235.486,45.431,233.964,45.431z"
					/>
				<path fill="#666666" d="M250.643,44.046c0.724,0,1.501,0.073,2.329,0.221l-0.299,1.494c-0.714-0.178-1.454-0.268-2.22-0.268
					c-1.457,0-2.653,0.619-3.587,1.856c-0.934,1.238-1.398,2.802-1.398,4.688v9.439h-1.559V44.376h1.322l0.156,3.084h0.109
					c0.703-1.258,1.453-2.143,2.251-2.651S249.511,44.046,250.643,44.046z"/>
				<path fill="#666666" d="M265.763,57.026c0,1.53-0.582,2.708-1.746,3.531c-1.166,0.824-2.816,1.234-4.955,1.234
					c-2.287,0-4.102-0.351-5.443-1.053v-1.685c1.719,0.86,3.533,1.29,5.443,1.29c1.688,0,2.971-0.28,3.846-0.841
					c0.875-0.562,1.314-1.31,1.314-2.243c0-0.859-0.35-1.584-1.047-2.17c-0.697-0.588-1.844-1.164-3.439-1.73
					c-1.709-0.619-2.908-1.15-3.6-1.598c-0.693-0.445-1.215-0.949-1.568-1.511c-0.35-0.56-0.525-1.245-0.525-2.053
					c0-1.28,0.537-2.292,1.611-3.036c1.076-0.745,2.578-1.117,4.508-1.117c1.848,0,3.598,0.346,5.256,1.039l-0.584,1.415
					c-1.678-0.692-3.234-1.038-4.672-1.038c-1.395,0-2.5,0.23-3.32,0.692c-0.816,0.461-1.227,1.101-1.227,1.919
					c0,0.892,0.318,1.605,0.953,2.14c0.635,0.535,1.873,1.134,3.719,1.794c1.543,0.557,2.666,1.057,3.369,1.502
					c0.703,0.446,1.229,0.953,1.58,1.52C265.587,55.594,265.763,56.261,265.763,57.026z"/>
			</g>
		</g>
	</g>
	<g>
		<g>
			<g>
				<rect x="14.94" y="13.627" fill="#547EBE" width="12.158" height="39.476"/>
				<rect x="51.314" y="13.627" fill="#28B9A1" width="12.231" height="39.476"/>
				<polygon fill="#63C2A6" points="51.387,53.103 63.545,53.103 45.36,19.608 33.199,19.608 				"/>
			</g>
			<polygon fill="#58C0EE" points="27.098,53.103 14.94,53.103 33.127,19.608 45.285,19.608 			"/>
		</g>
		<g>
			<path fill="#547EBE" d="M7.789,59.093V7.778h13.308V0H3.068C1.381,0,0,1.381,0,3.069v60.27c0,1.689,1.381,3.393,3.068,3.393
				h18.029v-7.639H7.789z"/>
			<path fill="#28B9A1" d="M70.695,59.093V7.778H57.387V0h18.029c1.687,0,3.07,1.381,3.07,3.069v60.27
				c0,1.689-1.383,3.393-3.07,3.393H57.387v-7.639H70.695z"/>
		</g>
	</g>
</g>
</svg>
