<?xml version="1.0" encoding="utf-8"?>
<!-- Generator: Adobe Illustrator 16.0.0, SVG Export Plug-In . SVG Version: 6.00 Build 0)  -->
<!DOCTYPE svg PUBLIC "-//W3C//DTD SVG 1.1//EN" "http://www.w3.org/Graphics/SVG/1.1/DTD/svg11.dtd">
<svg version="1.1" id="Layer_1" xmlns="http://www.w3.org/2000/svg" xmlns:xlink="http://www.w3.org/1999/xlink" x="0px" y="0px"
	 width="282.299px" height="262.643px" viewBox="0 0 282.299 262.643" enable-background="new 0 0 282.299 262.643"
	 xml:space="preserve">
<g>
	<g>
		<g>
			<g>
				<path fill="#FFFFFF" d="M21.285,262.321h-1.354l-5.172-18.176c-0.431-1.494-0.753-2.719-0.967-3.674
					c-0.173,0.934-0.417,2.008-0.733,3.223c-0.317,1.213-2.05,7.422-5.196,18.627H6.477L0,238.762h1.724l4.125,15.18
					c0.161,0.611,0.312,1.178,0.451,1.699s0.266,1.01,0.379,1.467c0.112,0.457,0.215,0.896,0.306,1.32
					c0.092,0.426,0.175,0.852,0.25,1.281c0.258-1.461,0.806-3.678,1.644-6.654l4.028-14.293h1.82l4.722,16.404
					c0.548,1.891,0.939,3.416,1.177,4.576c0.139-0.773,0.319-1.596,0.539-2.465c0.221-0.871,1.877-7.043,4.971-18.516h1.66
					L21.285,262.321z"/>
				<path fill="#FFFFFF" d="M44.055,253.54c0,2.857-0.692,5.088-2.078,6.693c-1.386,1.607-3.298,2.41-5.736,2.41
					c-1.536,0-2.89-0.371-4.061-1.111c-1.171-0.742-2.068-1.805-2.691-3.191c-0.623-1.385-0.934-2.986-0.934-4.801
					c0-2.857,0.692-5.084,2.078-6.68s3.287-2.393,5.704-2.393c2.406,0,4.294,0.809,5.664,2.424
					C43.37,248.508,44.055,250.725,44.055,253.54z M30.23,253.54c0,2.406,0.528,4.283,1.587,5.631
					c1.058,1.348,2.554,2.021,4.487,2.021s3.43-0.674,4.487-2.021c1.059-1.348,1.587-3.225,1.587-5.631
					c0-2.418-0.534-4.293-1.603-5.625c-1.069-1.332-2.57-1.998-4.504-1.998s-3.424,0.664-4.472,1.99
					C30.754,249.233,30.23,251.112,30.23,253.54z"/>
				<path fill="#FFFFFF" d="M69.137,262.321v-11.488c0-1.709-0.333-2.955-0.999-3.738c-0.666-0.785-1.687-1.178-3.062-1.178
					c-1.794,0-3.121,0.494-3.98,1.482s-1.289,2.541-1.289,4.658v10.264H58.18v-11.973c0-2.953-1.354-4.432-4.061-4.432
					c-1.837,0-3.174,0.535-4.012,1.604s-1.258,2.779-1.258,5.133v9.668h-1.595v-17.516h1.321l0.338,2.4h0.098
					c0.482-0.869,1.17-1.543,2.062-2.021c0.891-0.479,1.874-0.717,2.948-0.717c2.761,0,4.533,1.037,5.317,3.109h0.064
					c0.569-0.998,1.335-1.768,2.296-2.305c0.962-0.537,2.055-0.805,3.279-0.805c1.912,0,3.346,0.51,4.302,1.531
					c0.956,1.02,1.435,2.643,1.435,4.865v11.457H69.137z"/>
				<path fill="#FFFFFF" d="M81.812,262.643c-2.545,0-4.53-0.785-5.953-2.354c-1.424-1.568-2.135-3.764-2.135-6.59
					c0-2.793,0.687-5.029,2.062-6.711c1.374-1.682,3.228-2.521,5.559-2.521c2.062,0,3.689,0.719,4.883,2.158
					c1.191,1.439,1.788,3.395,1.788,5.865v1.289H75.399c0.021,2.406,0.582,4.244,1.684,5.512c1.101,1.268,2.677,1.9,4.729,1.9
					c1,0,1.878-0.068,2.635-0.209c0.758-0.139,1.717-0.439,2.877-0.902v1.451c-0.989,0.43-1.902,0.721-2.74,0.877
					S82.821,262.643,81.812,262.643z M81.345,245.885c-1.687,0-3.04,0.555-4.061,1.668c-1.021,1.111-1.617,2.715-1.789,4.809h10.828
					c0-2.029-0.44-3.617-1.32-4.762C84.121,246.458,82.902,245.885,81.345,245.885z"/>
				<path fill="#FFFFFF" d="M103.743,262.321v-11.359c0-1.762-0.371-3.043-1.111-3.844c-0.742-0.801-1.892-1.201-3.449-1.201
					c-2.094,0-3.628,0.529-4.6,1.588c-0.973,1.059-1.459,2.773-1.459,5.148v9.668h-1.595v-17.516h1.354l0.306,2.4h0.098
					c1.138-1.826,3.163-2.738,6.074-2.738c3.975,0,5.962,2.133,5.962,6.396v11.457H103.743z"/>
				<path fill="#FFFFFF" d="M124.129,262.321h-1.66v-22.012h-7.653v-1.547h16.968v1.547h-7.654V262.321z"/>
				<path fill="#FFFFFF" d="M139.97,262.643c-2.545,0-4.53-0.785-5.953-2.354c-1.424-1.568-2.135-3.764-2.135-6.59
					c0-2.793,0.687-5.029,2.062-6.711c1.374-1.682,3.228-2.521,5.559-2.521c2.062,0,3.689,0.719,4.882,2.158
					c1.191,1.439,1.789,3.395,1.789,5.865v1.289h-12.617c0.021,2.406,0.582,4.244,1.684,5.512c1.101,1.268,2.677,1.9,4.729,1.9
					c1,0,1.878-0.068,2.634-0.209c0.758-0.139,1.717-0.439,2.877-0.902v1.451c-0.988,0.43-1.902,0.721-2.74,0.877
					S140.979,262.643,139.97,262.643z M139.503,245.885c-1.687,0-3.04,0.555-4.061,1.668c-1.021,1.111-1.617,2.715-1.789,4.809
					h10.828c0-2.029-0.439-3.617-1.32-4.762C142.28,246.458,141.061,245.885,139.503,245.885z"/>
				<path fill="#FFFFFF" d="M157.01,262.643c-2.502,0-4.463-0.789-5.881-2.369c-1.418-1.578-2.127-3.781-2.127-6.605
					c0-2.9,0.736-5.16,2.207-6.777c1.473-1.615,3.486-2.424,6.043-2.424c1.514,0,2.965,0.264,4.35,0.789l-0.434,1.418
					c-1.516-0.504-2.832-0.758-3.949-0.758c-2.148,0-3.775,0.664-4.881,1.99c-1.107,1.326-1.66,3.236-1.66,5.729
					c0,2.363,0.553,4.213,1.66,5.551c1.105,1.338,2.652,2.006,4.641,2.006c1.59,0,3.066-0.283,4.43-0.854v1.482
					C160.292,262.37,158.827,262.643,157.01,262.643z"/>
				<path fill="#FFFFFF" d="M177.579,262.321v-11.359c0-1.762-0.371-3.043-1.111-3.844c-0.742-0.801-1.891-1.201-3.449-1.201
					c-2.094,0-3.627,0.529-4.6,1.588s-1.459,2.773-1.459,5.148v9.668h-1.594v-25.072h1.594v7.977l-0.08,2.238h0.113
					c0.654-1.053,1.482-1.814,2.48-2.287c1-0.473,2.24-0.709,3.723-0.709c3.975,0,5.963,2.133,5.963,6.396v11.457H177.579z"/>
				<path fill="#FFFFFF" d="M205.393,262.321v-11.488c0-1.709-0.334-2.955-1-3.738c-0.666-0.785-1.686-1.178-3.061-1.178
					c-1.795,0-3.121,0.494-3.98,1.482s-1.289,2.541-1.289,4.658v10.264h-1.627v-11.973c0-2.953-1.354-4.432-4.061-4.432
					c-1.838,0-3.174,0.535-4.012,1.604s-1.258,2.779-1.258,5.133v9.668h-1.596v-17.516h1.322l0.338,2.4h0.098
					c0.482-0.869,1.17-1.543,2.062-2.021c0.891-0.479,1.873-0.717,2.947-0.717c2.762,0,4.533,1.037,5.318,3.109h0.064
					c0.568-0.998,1.334-1.768,2.295-2.305c0.963-0.537,2.055-0.805,3.279-0.805c1.912,0,3.346,0.51,4.303,1.531
					c0.955,1.02,1.434,2.643,1.434,4.865v11.457H205.393z"/>
				<path fill="#FFFFFF" d="M221.958,262.321l-0.402-2.771h-0.129c-0.881,1.127-1.785,1.926-2.715,2.393s-2.027,0.701-3.295,0.701
					c-1.719,0-3.057-0.441-4.012-1.322c-0.957-0.881-1.436-2.1-1.436-3.656c0-1.709,0.713-3.035,2.135-3.98
					c1.424-0.945,3.484-1.445,6.18-1.498l3.336-0.098v-1.16c0-1.664-0.338-2.922-1.016-3.77c-0.676-0.85-1.768-1.273-3.27-1.273
					c-1.623,0-3.305,0.451-5.045,1.354l-0.596-1.387c1.922-0.902,3.824-1.354,5.705-1.354c1.922,0,3.359,0.5,4.309,1.5
					c0.951,0.998,1.428,2.557,1.428,4.672v11.65H221.958z M215.512,261.192c1.869,0,3.344-0.533,4.424-1.604
					c1.08-1.068,1.619-2.553,1.619-4.455v-1.723l-3.061,0.129c-2.461,0.117-4.215,0.502-5.262,1.15
					c-1.047,0.65-1.57,1.664-1.57,3.039c0,1.096,0.334,1.945,1.006,2.553S214.288,261.192,215.512,261.192z"/>
				<path fill="#FFFFFF" d="M229.379,254.635l8.943-9.83h1.934l-6.896,7.477l7.492,10.039h-1.918l-6.654-8.846l-2.869,2.609v6.236
					h-1.594v-25.072h1.594v12.568l-0.111,4.818H229.379z"/>
				<path fill="#FFFFFF" d="M249.538,262.643c-2.545,0-4.529-0.785-5.953-2.354s-2.135-3.764-2.135-6.59
					c0-2.793,0.688-5.029,2.062-6.711s3.229-2.521,5.559-2.521c2.062,0,3.689,0.719,4.883,2.158
					c1.191,1.439,1.789,3.395,1.789,5.865v1.289h-12.617c0.021,2.406,0.582,4.244,1.684,5.512s2.678,1.9,4.729,1.9
					c1,0,1.879-0.068,2.635-0.209c0.758-0.139,1.717-0.439,2.877-0.902v1.451c-0.988,0.43-1.902,0.721-2.74,0.877
					S250.547,262.643,249.538,262.643z M249.071,245.885c-1.686,0-3.039,0.555-4.061,1.668c-1.02,1.111-1.617,2.715-1.789,4.809
					h10.828c0-2.029-0.439-3.617-1.32-4.762C251.848,246.458,250.629,245.885,249.071,245.885z"/>
				<path fill="#FFFFFF" d="M266.483,244.467c0.74,0,1.535,0.074,2.385,0.225l-0.307,1.531c-0.73-0.182-1.488-0.273-2.271-0.273
					c-1.494,0-2.719,0.633-3.674,1.9c-0.957,1.268-1.436,2.869-1.436,4.803v9.668h-1.594v-17.516h1.354l0.16,3.158h0.113
					c0.719-1.289,1.488-2.193,2.305-2.715S265.323,244.467,266.483,244.467z"/>
				<path fill="#FFFFFF" d="M282.299,257.76c0,1.568-0.596,2.773-1.789,3.617c-1.191,0.844-2.885,1.266-5.076,1.266
					c-2.342,0-4.199-0.359-5.574-1.08v-1.725c1.762,0.881,3.619,1.322,5.574,1.322c1.73,0,3.043-0.287,3.939-0.863
					c0.898-0.574,1.346-1.34,1.346-2.295c0-0.881-0.357-1.623-1.07-2.225c-0.715-0.602-1.889-1.191-3.521-1.771
					c-1.752-0.635-2.98-1.18-3.689-1.637c-0.709-0.455-1.244-0.971-1.604-1.547c-0.359-0.574-0.539-1.275-0.539-2.102
					c0-1.311,0.549-2.348,1.65-3.109c1.102-0.764,2.641-1.145,4.617-1.145c1.891,0,3.684,0.354,5.381,1.062l-0.596,1.451
					c-1.719-0.709-3.314-1.064-4.785-1.064c-1.43,0-2.562,0.236-3.4,0.709s-1.256,1.129-1.256,1.967
					c0,0.912,0.324,1.643,0.975,2.191c0.648,0.547,1.92,1.16,3.811,1.836c1.578,0.57,2.729,1.082,3.447,1.539
					c0.721,0.457,1.26,0.975,1.619,1.555C282.12,256.293,282.299,256.977,282.299,257.76z"/>
			</g>
		</g>
	</g>
	<g>
		<g>
			<rect x="65.755" y="42.199" fill="#4285F4" width="37.65" height="122.249"/>
			<rect x="178.405" y="42.199" fill="#00BFA5" width="37.875" height="122.249"/>
			<polygon fill="#1CE9B6" points="178.629,164.448 216.28,164.448 159.959,60.719 122.31,60.719 			"/>
		</g>
		<polygon fill="#4FC3F7" points="103.405,164.448 65.755,164.448 122.075,60.719 159.725,60.719 		"/>
	</g>
	<g>
		<path fill="#4285F4" d="M43.617,182.999V24.081h41.21V0H28.994c-5.224,0-9.5,4.276-9.5,9.5v186.649c0,5.225,4.276,10.5,9.5,10.5
			h55.833v-23.65H43.617z"/>
		<path fill="#00BFA5" d="M238.418,182.999V24.081h-41.211V0h55.834c5.223,0,9.499,4.276,9.499,9.5v186.649
			c0,5.225-4.276,10.5-9.499,10.5h-55.834v-23.65H238.418z"/>
	</g>
</g>
</svg>
