<?xml version="1.0" encoding="utf-8"?>
<!-- Generator: Adobe Illustrator 16.0.0, SVG Export Plug-In . SVG Version: 6.00 Build 0)  -->
<!DOCTYPE svg PUBLIC "-//W3C//DTD SVG 1.1//EN" "http://www.w3.org/Graphics/SVG/1.1/DTD/svg11.dtd">
<svg version="1.1" id="Layer_1" xmlns="http://www.w3.org/2000/svg" xmlns:xlink="http://www.w3.org/1999/xlink" x="0px" y="0px"
	 width="174.993px" height="148.787px" viewBox="0 0 174.993 148.787" enable-background="new 0 0 174.993 148.787"
	 xml:space="preserve">
<g>
	<path fill="#FFFFFF" d="M141.686,114.211l-27.27-50.226V30.384h27.27V114.211z M102.189,45.657L88.635,70.621l25.943,47.781h27.107
		L102.189,45.657z M33.308,114.211l27.108-49.928V30.384H33.308V114.211z M73.858,43.717l-40.551,74.686h27.108l40.551-74.686
		H73.858z M17.368,17.338H47.04V0H6.84C3.079,0,0,3.078,0,6.84v134.387c0,3.763,3.079,7.561,6.84,7.561h40.2v-17.029H17.368V17.338z
		 M168.153,0h-40.199v17.338h29.672v114.42h-29.672v17.029h40.199c3.762,0,6.84-3.798,6.84-7.561V6.84
		C174.993,3.078,171.915,0,168.153,0z"/>
</g>
</svg>
